<svg width="532" height="228" viewBox="0 0 532 228" fill="none" xmlns="http://www.w3.org/2000/svg">
<path d="M3.99 68V19H20.51V55.19H42.63V68H3.99ZM62.3131 37.2H84.1531V49.1H62.3131V37.2ZM63.4331 55.54H87.9331V68H47.1931V19H87.0231V31.46H63.4331V55.54ZM104.933 68V31.81H90.5827V19H135.803V31.81H121.453V68H104.933ZM139.989 43.92L145.869 24.25L148.179 33.07C145.472 33.07 143.256 32.3 141.529 30.76C139.802 29.1733 138.939 27.0267 138.939 24.32C138.939 21.5667 139.802 19.3967 141.529 17.81C143.302 16.1767 145.519 15.36 148.179 15.36C150.839 15.36 153.032 16.1767 154.759 17.81C156.532 19.3967 157.419 21.5667 157.419 24.32C157.419 25.0667 157.349 25.8133 157.209 26.56C157.116 27.3067 156.882 28.2167 156.509 29.29C156.136 30.3167 155.529 31.7167 154.689 33.49L149.789 43.92H139.989ZM181.742 69.12C177.636 69.12 173.669 68.6533 169.842 67.72C166.016 66.7867 162.866 65.5733 160.392 64.08L165.712 52.04C168.046 53.3933 170.636 54.49 173.482 55.33C176.376 56.1233 179.176 56.52 181.882 56.52C183.469 56.52 184.706 56.4267 185.592 56.24C186.526 56.0067 187.202 55.7033 187.622 55.33C188.042 54.91 188.252 54.42 188.252 53.86C188.252 52.9733 187.762 52.2733 186.782 51.76C185.802 51.2467 184.496 50.8267 182.862 50.5C181.276 50.1267 179.526 49.7533 177.612 49.38C175.699 48.96 173.762 48.4233 171.802 47.77C169.889 47.1167 168.116 46.2533 166.482 45.18C164.896 44.1067 163.612 42.7067 162.632 40.98C161.652 39.2067 161.162 37.0133 161.162 34.4C161.162 31.3667 162.002 28.6133 163.682 26.14C165.409 23.62 167.952 21.6133 171.312 20.12C174.719 18.6267 178.942 17.88 183.982 17.88C187.296 17.88 190.562 18.23 193.782 18.93C197.002 19.63 199.896 20.7033 202.462 22.15L197.492 34.12C195.066 32.9067 192.709 31.9967 190.422 31.39C188.182 30.7833 185.989 30.48 183.842 30.48C182.256 30.48 180.996 30.62 180.062 30.9C179.129 31.18 178.452 31.5533 178.032 32.02C177.659 32.4867 177.472 33 177.472 33.56C177.472 34.4 177.962 35.0767 178.942 35.59C179.922 36.0567 181.206 36.4533 182.792 36.78C184.426 37.1067 186.199 37.4567 188.112 37.83C190.072 38.2033 192.009 38.7167 193.922 39.37C195.836 40.0233 197.586 40.8867 199.172 41.96C200.806 43.0333 202.112 44.4333 203.092 46.16C204.072 47.8867 204.562 50.0333 204.562 52.6C204.562 55.5867 203.699 58.34 201.972 60.86C200.292 63.3333 197.772 65.34 194.412 66.88C191.052 68.3733 186.829 69.12 181.742 69.12Z" fill="#2B5474"/>
<path d="M26.208 105.169H56.16V121.489H26.208V105.169ZM27.744 130.321H61.344V147.409H5.472V80.2091H60.096V97.2971H27.744V130.321ZM63.357 147.409L93.309 105.553L93.213 121.393L64.221 80.2091H89.661L106.557 105.169L95.709 105.265L112.221 80.2091H136.605L107.613 120.529V104.785L138.045 147.409H112.125L95.229 121.297L105.693 121.201L89.181 147.409H63.357ZM140.753 147.409V80.2091H173.105C179.377 80.2091 184.785 81.2331 189.329 83.2811C193.937 85.3291 197.489 88.2731 199.985 92.1131C202.481 95.8891 203.729 100.369 203.729 105.553C203.729 110.737 202.481 115.217 199.985 118.993C197.489 122.769 193.937 125.713 189.329 127.825C184.785 129.873 179.377 130.897 173.105 130.897H153.329L163.409 121.201V147.409H140.753ZM163.409 123.697L153.329 113.425H171.665C174.801 113.425 177.105 112.721 178.577 111.313C180.113 109.905 180.881 107.985 180.881 105.553C180.881 103.121 180.113 101.201 178.577 99.7931C177.105 98.3851 174.801 97.6811 171.665 97.6811H153.329L163.409 87.4091V123.697ZM211.16 147.409V80.2091H233.816V129.841H264.152V147.409H211.16ZM304.704 148.945C299.264 148.945 294.208 148.081 289.536 146.353C284.928 144.625 280.928 142.193 277.536 139.057C274.144 135.857 271.488 132.113 269.568 127.825C267.712 123.537 266.784 118.865 266.784 113.809C266.784 108.689 267.712 104.017 269.568 99.7931C271.488 95.5051 274.144 91.7931 277.536 88.6571C280.928 85.4571 284.928 82.9931 289.536 81.2651C294.208 79.5371 299.264 78.6731 304.704 78.6731C310.208 78.6731 315.264 79.5371 319.872 81.2651C324.48 82.9931 328.48 85.4571 331.872 88.6571C335.264 91.7931 337.888 95.5051 339.744 99.7931C341.664 104.017 342.624 108.689 342.624 113.809C342.624 118.865 341.664 123.537 339.744 127.825C337.888 132.113 335.264 135.857 331.872 139.057C328.48 142.193 324.48 144.625 319.872 146.353C315.264 148.081 310.208 148.945 304.704 148.945ZM304.704 130.609C306.816 130.609 308.768 130.225 310.56 129.457C312.416 128.689 314.016 127.601 315.36 126.193C316.768 124.721 317.856 122.961 318.624 120.913C319.392 118.801 319.776 116.433 319.776 113.809C319.776 111.185 319.392 108.849 318.624 106.801C317.856 104.689 316.768 102.929 315.36 101.521C314.016 100.049 312.416 98.9291 310.56 98.1611C308.768 97.3931 306.816 97.0091 304.704 97.0091C302.592 97.0091 300.608 97.3931 298.752 98.1611C296.96 98.9291 295.36 100.049 293.952 101.521C292.608 102.929 291.552 104.689 290.784 106.801C290.016 108.849 289.632 111.185 289.632 113.809C289.632 116.433 290.016 118.801 290.784 120.913C291.552 122.961 292.608 124.721 293.952 126.193C295.36 127.601 296.96 128.689 298.752 129.457C300.608 130.225 302.592 130.609 304.704 130.609ZM350.847 147.409V80.2091H383.199C389.471 80.2091 394.879 81.2331 399.423 83.2811C404.031 85.3291 407.583 88.2731 410.079 92.1131C412.575 95.8891 413.823 100.369 413.823 105.553C413.823 110.737 412.575 115.217 410.079 118.993C407.583 122.705 404.031 125.553 399.423 127.537C394.879 129.521 389.471 130.513 383.199 130.513H363.423L373.503 121.201V147.409H350.847ZM391.071 147.409L374.559 122.929H398.559L415.263 147.409H391.071ZM373.503 123.697L363.423 113.425H381.759C384.895 113.425 387.199 112.721 388.671 111.313C390.207 109.905 390.975 107.985 390.975 105.553C390.975 103.121 390.207 101.201 388.671 99.7931C387.199 98.3851 384.895 97.6811 381.759 97.6811H363.423L373.503 87.4091V123.697ZM443.114 105.169H473.066V121.489H443.114V105.169ZM444.65 130.321H478.25V147.409H422.378V80.2091H477.002V97.2971H444.65V130.321Z" fill="#E8EAE9"/>
<path d="M178.245 178.575C178.245 177.228 178.538 175.822 179.124 174.357C179.71 172.833 180.238 171.544 180.706 170.49C181.117 169.669 181.761 168.409 182.64 166.71C183.519 164.952 184.515 162.99 185.628 160.822C186.742 158.654 187.913 156.368 189.144 153.966C190.433 151.564 191.634 149.279 192.747 147.111C193.861 144.943 194.857 143.009 195.736 141.31C196.673 139.552 197.347 138.263 197.757 137.443C197.816 137.384 197.933 137.179 198.109 136.827C198.343 136.476 198.577 136.124 198.812 135.773C199.105 135.421 199.368 135.099 199.603 134.806C199.837 134.454 199.984 134.22 200.042 134.103C200.101 133.986 200.072 133.868 199.954 133.751C199.837 133.634 199.779 133.517 199.779 133.4C197.259 133.693 194.622 134.073 191.868 134.542C189.173 135.011 186.478 135.568 183.783 136.212C181.146 136.798 178.597 137.501 176.136 138.322C173.675 139.083 171.449 139.962 169.456 140.958C168.812 140.958 168.226 140.841 167.699 140.607C167.171 140.372 166.908 139.904 166.908 139.2V138.937C166.908 138.878 166.937 138.79 166.995 138.673C167.113 138.38 167.288 137.941 167.523 137.355C167.816 136.71 168.021 136.359 168.138 136.3L176.136 132.872L229.661 119.249C230.306 120.89 230.247 122.208 229.486 123.204C228.783 124.142 227.64 124.933 226.058 125.577C224.476 126.163 222.63 126.691 220.521 127.159C218.47 127.57 216.39 128.097 214.281 128.741C212.23 129.327 210.326 130.148 208.568 131.202C206.81 132.198 205.492 133.546 204.613 135.245C200.804 142.804 196.878 150.333 192.835 157.833C188.851 165.333 185.189 172.98 181.849 180.773C181.79 180.773 181.673 180.773 181.497 180.773C181.38 180.831 181.292 180.861 181.234 180.861C180.472 180.861 179.769 180.685 179.124 180.333C178.538 179.982 178.245 179.396 178.245 178.575ZM241.351 180.861C239.886 181.095 238.538 180.861 237.308 180.157C236.136 179.396 235.199 178.429 234.495 177.257C233.792 176.027 233.382 174.708 233.265 173.302C233.148 171.837 233.441 170.519 234.144 169.347C236.722 166.007 238.48 163.37 239.417 161.437C240.355 159.445 240.677 158.068 240.384 157.306C240.15 156.486 239.417 156.163 238.187 156.339C237.015 156.456 235.579 156.984 233.88 157.921C232.181 158.8 230.335 159.972 228.343 161.437C226.409 162.902 224.593 164.513 222.894 166.271C221.195 168.029 219.701 169.874 218.411 171.808C217.181 173.683 216.39 175.529 216.038 177.345C215.452 177.697 214.954 177.99 214.544 178.224C214.134 178.4 213.665 178.488 213.138 178.488C212.259 178.488 211.732 178.195 211.556 177.609C211.38 177.023 211.292 176.407 211.292 175.763C211.292 174.298 211.732 172.804 212.611 171.281C213.548 169.698 214.603 168.234 215.775 166.886C217.005 165.48 218.177 164.22 219.29 163.107C220.404 161.935 221.195 160.997 221.663 160.294C223.128 157.892 224.593 155.314 226.058 152.56C227.523 149.747 228.988 146.906 230.452 144.034C231.917 141.105 233.411 138.234 234.935 135.421C236.517 132.55 238.158 129.825 239.857 127.247C240.15 126.779 240.384 126.456 240.56 126.281C240.794 126.105 241.117 126.017 241.527 126.017C241.995 126.017 242.347 126.105 242.581 126.281C242.816 126.456 243.05 126.779 243.284 127.247C243.284 127.482 243.226 127.863 243.109 128.39C243.05 128.917 242.962 129.503 242.845 130.148C242.786 130.734 242.669 131.29 242.493 131.818C242.376 132.345 242.288 132.697 242.23 132.872C241.878 133.575 241.292 134.806 240.472 136.564C239.652 138.322 238.743 140.197 237.747 142.189C236.81 144.181 235.902 146.144 235.023 148.077C234.144 149.952 233.499 151.359 233.089 152.296C233.968 151.71 234.759 151.271 235.462 150.978C236.165 150.626 236.839 150.392 237.484 150.275C238.187 150.099 238.89 150.011 239.593 150.011C240.355 149.952 241.175 149.923 242.054 149.923C244.163 150.45 245.54 151.241 246.185 152.296C246.888 153.351 247.093 154.581 246.8 155.988C246.566 157.335 246.009 158.829 245.13 160.47C244.251 162.111 243.314 163.781 242.318 165.48C241.38 167.12 240.531 168.732 239.769 170.314C239.007 171.837 238.656 173.243 238.714 174.532C238.714 175.06 238.831 175.441 239.066 175.675C239.3 175.909 239.593 176.085 239.945 176.202C240.296 176.32 240.677 176.378 241.087 176.378C241.497 176.378 241.878 176.378 242.23 176.378C243.46 176.378 244.632 176.202 245.745 175.851C246.917 175.441 248.06 175.001 249.173 174.532C250.286 174.064 251.4 173.654 252.513 173.302C253.685 172.892 254.886 172.687 256.117 172.687C256.117 173.8 255.56 174.855 254.447 175.851C253.333 176.847 251.986 177.726 250.404 178.488C248.88 179.191 247.269 179.777 245.57 180.245C243.87 180.656 242.464 180.861 241.351 180.861ZM253.216 176.202C252.22 173.976 251.781 171.808 251.898 169.698C252.015 167.531 252.484 165.509 253.304 163.634C254.183 161.7 255.296 159.972 256.644 158.448C258.05 156.866 259.544 155.519 261.126 154.406C262.708 153.234 264.29 152.355 265.872 151.769C267.513 151.183 268.949 150.948 270.179 151.066C271.409 151.124 272.376 151.564 273.079 152.384C273.783 153.204 274.017 154.464 273.783 156.163C273.783 158.448 273.05 160.441 271.585 162.14C270.179 163.839 268.597 165.363 266.839 166.71C265.14 168.058 263.558 169.288 262.093 170.402C260.687 171.456 259.984 172.452 259.984 173.39C259.984 173.917 260.277 174.327 260.863 174.62C261.507 174.913 262.24 175.148 263.06 175.323C263.88 175.441 264.701 175.529 265.521 175.587C266.341 175.646 266.927 175.704 267.279 175.763C272.786 174.591 276.917 173.888 279.671 173.654C282.425 173.361 284.154 173.39 284.857 173.741C285.56 174.034 285.413 174.532 284.417 175.236C283.48 175.88 282.015 176.583 280.023 177.345C278.031 178.048 275.716 178.693 273.079 179.279C270.443 179.865 267.835 180.216 265.257 180.333C262.679 180.392 260.277 180.128 258.05 179.542C255.882 178.956 254.271 177.843 253.216 176.202ZM268.597 156.163C267.425 156.163 266.312 156.486 265.257 157.13C264.202 157.775 263.236 158.595 262.357 159.591C261.536 160.529 260.833 161.583 260.247 162.755C259.661 163.868 259.222 164.923 258.929 165.919C259.046 165.978 259.134 166.007 259.193 166.007H259.456C260.277 166.007 261.214 165.656 262.269 164.952C263.324 164.249 264.32 163.4 265.257 162.404C266.195 161.349 266.986 160.265 267.63 159.152C268.275 158.038 268.597 157.042 268.597 156.163ZM330.208 175.763C330.208 175.411 330.238 174.855 330.296 174.093C330.355 173.331 330.384 172.892 330.384 172.775C331.556 168.029 332.523 163.956 333.284 160.558C334.105 157.159 334.779 154.288 335.306 151.945C335.833 149.601 336.243 147.726 336.536 146.32C336.829 144.913 337.034 143.829 337.152 143.068C337.269 142.247 337.327 141.691 337.327 141.398C337.386 141.046 337.415 140.782 337.415 140.607C337.415 140.255 337.415 139.64 337.415 138.761C337.474 137.882 337.445 137.003 337.327 136.124C337.21 135.187 336.976 134.396 336.624 133.751C336.331 133.048 335.804 132.697 335.042 132.697C334.281 132.697 333.636 132.96 333.109 133.488C332.64 133.956 332.171 134.454 331.702 134.982C331.234 135.45 330.706 135.861 330.12 136.212C329.593 136.564 328.919 136.593 328.099 136.3C328.919 133.839 329.945 132.081 331.175 131.027C332.464 129.972 334.339 129.445 336.8 129.445C338.265 129.445 339.349 129.738 340.052 130.323C340.814 130.851 341.312 131.583 341.546 132.521C341.839 133.4 341.986 134.425 341.986 135.597C341.986 136.769 341.986 137.97 341.986 139.2C341.986 141.427 341.781 143.624 341.37 145.792C341.019 147.96 340.609 150.128 340.14 152.296C339.671 154.464 339.232 156.632 338.822 158.8C338.47 160.968 338.294 163.165 338.294 165.392C338.294 165.509 338.294 165.802 338.294 166.271C338.353 166.681 338.382 166.945 338.382 167.062L339.525 165.919C344.329 159.064 348.167 153.497 351.038 149.22C353.968 144.943 356.283 141.603 357.982 139.2C359.681 136.74 360.999 135.07 361.937 134.191C362.874 133.312 363.753 132.872 364.574 132.872C365.335 132.872 365.921 133.077 366.331 133.488C366.8 133.898 367.152 134.396 367.386 134.982C367.62 135.568 367.767 136.212 367.826 136.915C367.943 137.56 368.001 138.146 368.001 138.673V165.919H369.144L399.818 119.249C401.4 116.906 403.04 115.382 404.74 114.679C406.439 113.917 408.607 113.917 411.243 114.679L402.191 123.82C397.269 131.378 393.109 137.941 389.71 143.507C386.37 149.015 383.558 153.732 381.273 157.657C379.046 161.525 377.23 164.689 375.824 167.15C374.476 169.552 373.333 171.456 372.396 172.863C371.458 174.21 370.638 175.148 369.935 175.675C369.232 176.144 368.411 176.378 367.474 176.378C365.892 176.378 364.72 175.88 363.958 174.884C363.255 173.888 362.757 172.716 362.464 171.368C362.23 169.962 362.113 168.527 362.113 167.062C362.171 165.597 362.201 164.396 362.201 163.458C362.201 161.349 362.201 159.445 362.201 157.745C362.259 155.988 362.318 154.259 362.376 152.56C362.493 150.861 362.611 149.103 362.728 147.286C362.904 145.411 363.138 143.273 363.431 140.87C358.158 148.898 353.822 155.402 350.423 160.382C347.083 165.363 344.359 169.23 342.249 171.984C340.14 174.738 338.47 176.613 337.24 177.609C336.068 178.546 334.984 179.015 333.988 179.015C332.406 179.015 331.38 178.781 330.911 178.312C330.443 177.784 330.208 176.935 330.208 175.763ZM389.095 173.39C389.095 173.156 389.095 172.687 389.095 171.984C389.154 171.222 389.183 170.724 389.183 170.49C391.058 166.212 393.46 162.257 396.39 158.624C399.32 154.991 402.63 151.769 406.322 148.956C406.439 148.956 406.615 148.927 406.849 148.868C407.142 148.751 407.347 148.693 407.464 148.693C409.046 148.693 410.335 149.044 411.331 149.747C412.386 150.392 413.206 151.271 413.792 152.384C414.437 153.439 414.876 154.64 415.111 155.988C415.345 157.277 415.462 158.536 415.462 159.767C415.462 162.052 414.935 164.454 413.88 166.974C412.826 169.435 411.39 171.72 409.574 173.829C407.816 175.88 405.794 177.579 403.509 178.927C401.224 180.216 398.851 180.861 396.39 180.861C393.929 180.861 392.083 180.216 390.853 178.927C389.681 177.579 389.095 175.734 389.095 173.39ZM395.951 172.335C395.951 172.98 396.214 173.419 396.742 173.654C397.269 173.888 397.796 174.005 398.324 174.005C399.788 174.005 401.195 173.624 402.542 172.863C403.949 172.042 405.179 171.046 406.234 169.874C407.347 168.644 408.226 167.296 408.87 165.831C409.515 164.366 409.837 162.96 409.837 161.613C409.837 160.968 409.779 160.265 409.661 159.503C409.603 158.683 409.427 157.98 409.134 157.394C408.841 156.749 408.372 156.251 407.728 155.9C407.142 155.548 406.292 155.49 405.179 155.724C404.359 155.9 403.421 156.661 402.367 158.009C401.312 159.357 400.286 160.939 399.29 162.755C398.353 164.513 397.562 166.3 396.917 168.116C396.273 169.874 395.951 171.281 395.951 172.335ZM438.05 174.005C438.05 172.247 438.402 170.636 439.105 169.171C439.867 167.648 440.687 166.212 441.566 164.865C442.445 163.517 443.236 162.169 443.939 160.822C444.701 159.474 445.081 158.038 445.081 156.515C445.081 156.163 445.052 155.753 444.993 155.284C444.993 154.757 444.935 154.259 444.818 153.79C444.759 153.322 444.583 152.941 444.29 152.648C444.056 152.296 443.734 152.12 443.324 152.12C443.265 152.12 443.148 152.15 442.972 152.208C442.855 152.208 442.796 152.238 442.796 152.296C441.976 153.409 440.98 154.669 439.808 156.075C438.695 157.423 437.493 158.771 436.204 160.118C434.915 161.466 433.656 162.755 432.425 163.986C431.195 165.216 430.081 166.241 429.085 167.062C428.382 167.706 427.415 168.585 426.185 169.698C425.013 170.812 423.812 171.925 422.581 173.038C421.409 174.093 420.355 175.031 419.417 175.851C418.538 176.671 418.04 177.081 417.923 177.081L413.88 173.654C414.408 173.654 414.935 173.536 415.462 173.302C415.931 173.068 416.4 172.804 416.868 172.511C420.384 170.167 423.548 167.472 426.361 164.425C429.232 161.378 432.044 158.097 434.798 154.581C434.915 154.406 435.208 153.907 435.677 153.087C436.204 152.208 436.761 151.241 437.347 150.187C437.933 149.073 438.519 147.99 439.105 146.935C439.691 145.822 440.13 144.943 440.423 144.298C440.775 143.536 440.98 142.921 441.038 142.452C441.156 141.984 441.243 141.632 441.302 141.398C441.419 141.105 441.595 140.9 441.829 140.782C442.064 140.665 442.562 140.607 443.324 140.607C443.441 140.607 443.704 140.636 444.115 140.695C444.583 140.753 444.876 140.812 444.993 140.87C445.755 142.452 446.429 143.859 447.015 145.089C447.601 146.32 448.099 147.491 448.509 148.605C448.919 149.659 449.212 150.743 449.388 151.857C449.622 152.97 449.74 154.2 449.74 155.548C448.978 157.482 448.128 159.474 447.191 161.525C446.253 163.517 445.462 165.421 444.818 167.238C444.173 169.054 443.763 170.695 443.587 172.159C443.47 173.624 443.792 174.796 444.554 175.675C445.374 176.495 446.722 176.935 448.597 176.993C450.531 177.052 453.255 176.554 456.771 175.499C457.708 175.968 457.796 176.554 457.034 177.257C456.273 177.902 455.101 178.517 453.519 179.103C451.995 179.689 450.296 180.187 448.421 180.597C446.605 180.948 445.081 181.036 443.851 180.861C442.738 180.861 441.8 180.685 441.038 180.333C440.335 179.923 439.749 179.396 439.281 178.751C438.87 178.107 438.548 177.374 438.314 176.554C438.138 175.734 438.05 174.884 438.05 174.005ZM452.376 172.775C452.376 172.365 452.406 171.749 452.464 170.929C452.581 170.05 452.699 169.2 452.816 168.38C452.933 167.56 453.05 166.827 453.167 166.183C453.284 165.48 453.402 165.04 453.519 164.865L469.515 132.872C469.749 132.404 470.189 131.759 470.833 130.939C471.536 130.06 472.269 129.181 473.031 128.302C473.851 127.365 474.642 126.515 475.404 125.753C476.224 124.933 476.898 124.288 477.425 123.82C477.835 123.937 478.128 124.142 478.304 124.435C478.48 124.728 478.597 125.079 478.656 125.49C478.714 125.841 478.714 126.193 478.656 126.544C478.656 126.896 478.656 127.189 478.656 127.423C478.656 127.716 478.656 128.126 478.656 128.654C478.656 129.181 478.626 129.445 478.568 129.445C477.982 131.027 477.074 132.902 475.843 135.07C474.613 137.238 473.236 139.552 471.712 142.013C470.189 144.474 468.607 147.052 466.966 149.747C465.384 152.384 463.919 155.021 462.572 157.657C461.283 160.236 460.199 162.726 459.32 165.128C458.499 167.531 458.089 169.728 458.089 171.72C458.089 172.775 458.382 173.624 458.968 174.269C459.613 174.855 460.286 175.382 460.99 175.851C461.693 176.32 462.337 176.788 462.923 177.257C463.568 177.726 463.89 178.37 463.89 179.191C463.89 179.718 463.656 180.128 463.187 180.421C462.718 180.656 462.161 180.773 461.517 180.773C459.056 180.773 456.917 180.099 455.101 178.751C453.284 177.345 452.376 175.353 452.376 172.775ZM475.316 172.072C475.316 169.142 476.136 166.271 477.777 163.458C479.476 160.646 481.615 158.156 484.193 155.988C486.771 153.82 489.613 152.091 492.718 150.802C495.824 149.454 498.783 148.781 501.595 148.781C502.708 148.781 503.763 148.986 504.759 149.396C505.755 149.806 506.81 150.011 507.923 150.011H508.451C508.743 149.366 509.3 148.224 510.12 146.583C510.999 144.943 511.908 143.214 512.845 141.398C513.841 139.581 514.779 137.882 515.658 136.3C516.536 134.659 517.181 133.517 517.591 132.872C518.236 131.759 519.115 130.382 520.228 128.741C521.341 127.042 522.425 125.402 523.48 123.82C524.593 122.238 525.56 120.89 526.38 119.777C527.201 118.663 527.669 118.107 527.786 118.107L531.214 121.534C531.214 121.652 530.98 122.179 530.511 123.116C530.101 124.054 529.544 125.284 528.841 126.808C528.138 128.273 527.318 129.913 526.38 131.73C525.501 133.546 524.593 135.363 523.656 137.179C522.718 138.995 521.81 140.753 520.931 142.452C520.111 144.093 519.378 145.47 518.734 146.583C516.917 149.337 515.072 152.15 513.197 155.021C511.38 157.833 509.915 160.47 508.802 162.931C507.747 165.333 507.22 167.443 507.22 169.259C507.279 171.075 508.275 172.335 510.208 173.038C513.724 172.394 516.361 172.13 518.118 172.247C519.876 172.365 520.96 172.687 521.37 173.214C521.839 173.683 521.781 174.269 521.195 174.972C520.609 175.616 519.671 176.202 518.382 176.73C517.152 177.257 515.716 177.609 514.076 177.784C512.435 177.96 510.794 177.784 509.154 177.257C507.513 176.73 506.019 175.763 504.671 174.357C503.324 172.95 502.298 170.929 501.595 168.292L487.972 179.63C487.972 179.63 487.738 179.689 487.269 179.806C486.859 179.923 486.331 180.04 485.687 180.157C485.101 180.275 484.486 180.392 483.841 180.509C483.197 180.626 482.669 180.714 482.259 180.773H481.732C480.384 180.773 479.271 180.538 478.392 180.07C477.572 179.542 476.927 178.898 476.458 178.136C475.99 177.316 475.667 176.378 475.492 175.323C475.374 174.269 475.316 173.185 475.316 172.072ZM481.029 171.105C481.029 171.456 480.999 171.866 480.941 172.335C480.941 172.804 480.97 173.243 481.029 173.654C481.146 174.005 481.322 174.327 481.556 174.62C481.849 174.913 482.259 175.06 482.786 175.06C483.548 175.06 484.456 174.796 485.511 174.269C486.624 173.683 487.708 173.009 488.763 172.247C489.818 171.486 490.784 170.724 491.663 169.962C492.601 169.2 493.275 168.644 493.685 168.292C494.095 167.882 494.857 167.15 495.97 166.095C497.083 164.982 498.226 163.81 499.398 162.579C500.628 161.349 501.771 160.206 502.826 159.152C503.88 158.097 504.613 157.335 505.023 156.866V156.603C505.023 156.486 505.023 156.427 505.023 156.427C505.081 156.368 505.111 156.31 505.111 156.251C505.111 155.724 504.935 155.343 504.583 155.109C504.29 154.816 503.909 154.64 503.441 154.581C503.031 154.464 502.591 154.435 502.122 154.493C501.654 154.493 501.273 154.493 500.98 154.493C498.87 154.493 496.644 154.933 494.3 155.812C491.956 156.691 489.788 157.892 487.796 159.415C485.863 160.88 484.251 162.638 482.962 164.689C481.673 166.681 481.029 168.82 481.029 171.105Z" fill="#DDB369"/>
</svg>
